<?xml version="1.0" encoding="utf-8"?>
<!-- Generator: Adobe Illustrator 16.0.0, SVG Export Plug-In . SVG Version: 6.00 Build 0)  -->
<!DOCTYPE svg PUBLIC "-//W3C//DTD SVG 1.1//EN" "http://www.w3.org/Graphics/SVG/1.1/DTD/svg11.dtd">
<svg version="1.1" id="Ebene_1" xmlns="http://www.w3.org/2000/svg" xmlns:xlink="http://www.w3.org/1999/xlink" x="0px" y="0px"
	 width="80.848px" height="54.375px" viewBox="0 0 80.848 54.375" enable-background="new 0 0 80.848 54.375" xml:space="preserve">
<path fill="#6E1A35" d="M44.59,19.25c-1.309,0.841-2.938,1.262-4.882,1.262c-1.368,0-2.589-0.333-3.671-0.985v0.003
	c-0.008-0.006-0.015-0.012-0.024-0.017c-0.26-0.158-0.515-0.328-0.758-0.524c-0.369-0.275-0.729-0.568-1.07-0.901
	c-2.044-1.994-3.066-4.516-3.066-7.565c0-1.821,0.38-3.457,1.122-4.916C32.228,5.62,32.213,5.631,32.2,5.644
	c-2.082,2.033-3.123,4.574-3.123,7.625c0,3.049,1.022,5.57,3.066,7.564c2.042,1.995,4.578,2.992,7.61,2.992
	c3.597,0,6.362-1.065,8.298-3.196V13.62H44.59V19.25z"/>
<path fill="#6E1A35" d="M42.845,6.392c0.812,0.263,1.617,0.738,2.42,1.422l1.849-2.639c-0.731-0.643-1.532-1.166-2.402-1.568
	c-0.772-0.231-1.65-0.357-2.654-0.357c-2.072,0-3.812,0.67-5.219,2.009c-0.713,0.678-1.243,1.465-1.596,2.358
	c1.325-1.078,2.915-1.621,4.773-1.621C41.091,5.996,42.035,6.127,42.845,6.392"/>
<rect x="-79.25" y="-47.155" fill="none" width="240.944" height="155.905"/>
</svg>
